# xmcd
#
# Track frame offsets: 
#        150
#        14570
#        30142
#        48462
#        65100
#        78485
#        100952
#        115155
#        135297
#        145837
#        160862
#        174047
#
# Disc length: 2572 seconds
#
# Revision: 0
# Processed by: cddbd v1.5.2PL0 Copyright (c) Steve Scherf et al.
# Submitted via: ExactAudioCopy v0.99pb3
#
DISCID=920a0a0c
DTITLE=middletown - welcome to the family
DYEAR=2002
DGENRE=Alt. Rock
TTITLE0=Welcome To The Family
TTITLE1=Awful Lot Of Trouble
TTITLE2=Billy Jo
TTITLE3=Call On Me
TTITLE4=Wonderful Feeling
TTITLE5=This Time
TTITLE6=Closer To The Truth
TTITLE7=Middletown
TTITLE8=Wild Eyed Annetta
TTITLE9=1000 Magic Fingers
TTITLE10=Family Practice
TTITLE11=Welcome To The Family (Part 2)
EXTD=
EXTT0=
EXTT1=
EXTT2=
EXTT3=
EXTT4=
EXTT5=
EXTT6=
EXTT7=
EXTT8=
EXTT9=
EXTT10=
EXTT11=
PLAYORDER=
